#!OML:ASF G:\JayActor3\Patient Classification 1\Patient 1\Session 6\male.ASF
:FULLY-SPECIFIED
:DEGREES
968
root 11.6252 15.8682 -5.05491 16.6409 -53.5646 -4.97846
lowerback 28.4037 -1.6522 3.37579
upperback 7.50849 -1.49873 0.480895
thorax -7.30988 -0.8993 -0.886372
lowerneck 3.06375 0.65769 4.32406
upperneck 6.92633 1.02493 -3.23553
head 1.6962 0.532765 -1.75663
rclavicle 1.19271e-015 -2.38542e-014
rhumerus -20.7213 38.1103 -71.4025
rradius 84.1769
rwrist -3.72828
rhand -14.2905 -9.36093
rfingers 7.12502
rthumb 11.849 -39.0057
lclavicle 1.19271e-015 -2.38542e-014
lhumerus -36.39 -28.4791 81.1867
lradius 62.8931
lwrist 45.6022
lhand -20.5665 12.8038
lfingers 7.12502
lthumb 5.79287 42.7046
rfemur -43.6065 2.45048 23.9354
rtibia 52.0582
rfoot -23.0326 -12.9478
rtoes 0.520109
lfemur -36.5115 4.49704 -20.978
ltibia 45.6308
lfoot -20.9243 -3.35414
ltoes 3.28533
969
root 11.6276 15.8678 -5.06697 16.985 -53.4235 -4.91957
lowerback 28.5549 -1.67734 3.33775
upperback 7.51616 -1.53381 0.49698
thorax -7.37465 -0.916186 -0.831617
lowerneck 3.06089 0.667168 4.30501
upperneck 6.8193 1.03762 -3.2424
head 1.66255 0.538727 -1.75473
rclavicle -1.80894e-014 3.69739e-014
rhumerus -20.2468 38.1818 -71.2575
rradius 83.9797
rwrist -3.65891
rhand -14.1294 -9.43603
rfingers 7.12502
rthumb 12.0043 -39.0718
lclavicle -1.80894e-014 3.69739e-014
lhumerus -36.4212 -28.3503 81.2264
lradius 62.8283
lwrist 45.4732
lhand -20.5889 12.6821
lfingers 7.12502
lthumb 5.77129 42.5835
rfemur -44.1147 2.26386 23.9771
rtibia 52.1398
rfoot -23.1055 -12.9311
rtoes 0.320971
lfemur -37.0727 4.43541 -20.9835
ltibia 45.7312
lfoot -20.8311 -3.55073
ltoes 3.34304
970
root 11.6317 15.8671 -5.08027 17.3846 -53.2766 -4.86964
lowerback 28.7184 -1.70194 3.30484
upperback 7.5234 -1.56564 0.520495
thorax -7.44544 -0.931588 -0.772202
lowerneck 3.04241 0.675079 4.2729
upperneck 6.67549 1.04752 -3.24787
head 1.61953 0.54307 -1.74986
rclavicle 1.17482e-013 -5.48646e-014
rhumerus -19.7204 38.2472 -71.0785
rradius 83.8067
rwrist -3.5853
rhand -13.989 -9.49892
rfingers 7.12502
rthumb 12.1397 -39.1267
lclavicle 1.17482e-013 -5.48646e-014
lhumerus -36.4483 -28.2028 81.2605
lradius 62.7765
lwrist 45.3531
lhand -20.5785 12.4967
lfingers 7.12502
lthumb 5.78128 42.3978
rfemur -44.6972 2.05548 24.0333
rtibia 52.2345
rfoot -23.15 -12.8879
rtoes 0.179432
lfemur -37.7119 4.37482 -20.9891
ltibia 45.8501
lfoot -20.7234 -3.7513
ltoes 3.4044
971
root 11.6378 15.8659 -5.09489 17.8378 -53.1294 -4.82196
lowerback 28.8902 -1.72144 3.27435
upperback 7.53546 -1.58998 0.548762
thorax -7.51419 -0.943457 -0.711169
lowerneck 3.00307 0.679958 4.22289
upperneck 6.48756 1.05199 -3.24208
head 1.56548 0.544532 -1.73794
rclavicle 4.57205e-015 -5.98342e-014
rhumerus -19.1263 38.3067 -70.8454
rradius 83.6661
rwrist -3.51895
rhand -13.8732 -9.52915
rfingers 7.12502
rthumb 12.2514 -39.1503
lclavicle 4.57205e-015 -5.98342e-014
lhumerus -36.4746 -28.0548 81.2905
lradius 62.7683
lwrist 45.3269
lhand -20.6336 12.2713
lfingers 7.12502
lthumb 5.72815 42.1739
rfemur -45.3616 1.83088 24.0991
rtibia 52.3444
rfoot -23.1543 -12.818
rtoes 0.129325
lfemur -38.4326 4.31448 -20.9997
ltibia 45.9881
lfoot -20.6001 -3.95377
ltoes 3.47762
972
root 11.6461 15.8643 -5.11076 18.3437 -52.9912 -4.76884
lowerback 29.0641 -1.73371 3.23329
upperback 7.55706 -1.6082 0.583585
thorax -7.57237 -0.952315 -0.638822
lowerneck 2.95039 0.685087 4.15139
upperneck 6.23878 1.05587 -3.23319
head 1.49408 0.545404 -1.7209
rclavicle -9.74045e-015 -3.95581e-014
rhumerus -18.4348 38.3785 -70.5308
rradius 83.5677
rwrist -3.47845
rhand -13.7748 -9.53337
rfingers 7.12502
rthumb 12.3462 -39.1488
lclavicle -9.74045e-015 -3.95581e-014
lhumerus -36.4844 -27.8713 81.2997
lradius 62.8144
lwrist 45.3324
lhand -20.6866 12.1829
lfingers 7.12502
lthumb 5.67693 42.0869
rfemur -46.1188 1.59471 24.1676
rtibia 52.4729
rfoot -23.1064 -12.722
rtoes 0.189875
lfemur -39.2404 4.24937 -21.022
ltibia 46.1459
lfoot -20.4623 -4.14698
ltoes 3.55761
973
root 11.6569 15.8619 -5.12782 18.901 -52.8693 -4.70527
lowerback 29.2406 -1.73356 3.18452
upperback 7.58858 -1.61371 0.618244
thorax -7.61979 -0.955085 -0.566619
lowerneck 2.89709 0.686944 4.06833
upperneck 5.91638 1.05472 -3.21637
head 1.39912 0.543887 -1.69897
rclavicle -1.8487e-014 -4.59193e-014
rhumerus -17.6444 38.4523 -70.1332
rradius 83.5121
rwrist -3.46284
rhand -13.6972 -9.51671
rfingers 7.12502
rthumb 12.421 -39.1277
lclavicle -1.8487e-014 -4.59193e-014
lhumerus -36.4841 -27.6778 81.2875
lradius 62.9087
lwrist 45.3938
lhand -20.7198 12.0553
lfingers 7.12502
lthumb 5.64487 41.9601
rfemur -46.9765 1.35005 24.2352
rtibia 52.6234
rfoot -22.9935 -12.6054
rtoes 0.356266
lfemur -40.1395 4.17311 -21.0588
ltibia 46.3271
lfoot -20.307 -4.32386
ltoes 3.65256
